<svg xmlns="http://www.w3.org/2000/svg" viewBox="-0.5 -0.5 16 16" fill="#ff8a1d" id="Warning--Streamline-Phosphor.svg" height="16" width="16"><desc>Warning Streamline Icon: https://streamlinehq.com</desc><path d="m14.63996484375 11.705671875 -5.738613281249999 -9.965958984375c-0.62799609375 -1.06925390625 -2.17405078125 -1.06925390625 -2.802046875 0L0.36069140625 11.705671875c-0.28092187500000004 0.48082031249999996 -0.28092187500000004 1.0757226562500002 0 1.55654296875 0.288240234375 0.5001328125000001 0.823810546875 0.805921875 1.4010234375 0.7999277343750001h11.477226562499999c0.576744140625 0.00551953125 1.111705078125 -0.30020507812499997 1.3997109375 -0.7999277343750001 0.28132617187500003 -0.4805859375 0.281830078125 -1.07548828125 0.0013125 -1.55654296875Zm-0.910171875 1.0309160156250001c-0.101859375 0.173748046875 -0.28947656250000003 0.27909375000000003 -0.4908515625 0.27560742187500004H1.76171484375c-0.201375 0.003486328125 -0.3889921875 -0.101859375 -0.4908515625 -0.27560742187500004 -0.092291015625 -0.15625781249999998 -0.092291015625 -0.35034374999999995 0 -0.5066015625l5.738613281249999 -9.965958984375c0.22309570312500002 -0.37125 0.761232421875 -0.37125 0.984328125 0l5.738613281249999 9.965958984375c0.091482421875 0.156732421875 0.090474609375 0.35082421875 -0.002625 0.5066015625Zm-6.754435546875 -3.9241757812499998v-2.624865234375c0 -0.404126953125 0.43747265625 -0.6567011718750001 0.787458984375 -0.454640625 0.162427734375 0.093779296875 0.26248242187500004 0.26708203125 0.26248242187500004 0.454640625v2.624865234375c0 0.40412109375 -0.437478515625 0.6567011718750001 -0.787458984375 0.454640625 -0.162427734375 -0.093779296875 -0.26248242187500004 -0.267087890625 -0.26248242187500004 -0.454640625Zm1.3124296875 2.362376953125c0 0.6061875 -0.65621484375 0.9850546874999999 -1.18119140625 0.6819609375 -0.524970703125 -0.30309375 -0.524970703125 -1.060828125 0 -1.363921875 0.11971875000000001 -0.0691171875 0.2554921875 -0.10550390625 0.39373242187499996 -0.105498046875 0.434888671875 0.000017578125 0.787458984375 0.3525703125 0.787458984375 0.787458984375Z" stroke-width="1"></path></svg>